<mxfile host="app.diagrams.net" modified="2023-11-24T23:24:57.644Z" agent="Mozilla/5.0 (Windows NT 10.0; Win64; x64) AppleWebKit/537.36 (KHTML, like Gecko) Chrome/119.0.0.0 Safari/537.36 Edg/119.0.0.0" etag="XNHmzTuwGovSE8zcJEmC" version="22.1.4" type="device">
  <diagram name="Page-1" id="oit_1julGFqI6oK9F4lP">
    <mxGraphModel dx="1106" dy="623" grid="1" gridSize="10" guides="1" tooltips="1" connect="1" arrows="1" fold="1" page="1" pageScale="1" pageWidth="850" pageHeight="1100" math="0" shadow="0">
      <root>
        <mxCell id="0" />
        <mxCell id="1" parent="0" />
        <mxCell id="qeGmMF54fT7G0q_B0uXI-2" value="Adicionar sponsor" style="rounded=0;whiteSpace=wrap;html=1;" parent="1" vertex="1">
          <mxGeometry x="90" y="260" width="110" height="30" as="geometry" />
        </mxCell>
        <mxCell id="qeGmMF54fT7G0q_B0uXI-12" value="" style="rounded=0;whiteSpace=wrap;html=1;" parent="1" vertex="1">
          <mxGeometry x="80" y="300" width="640" height="260" as="geometry" />
        </mxCell>
        <mxCell id="9hJ4u-ntoePvAPQd4LTp-1" value="" style="rounded=0;whiteSpace=wrap;html=1;" parent="1" vertex="1">
          <mxGeometry x="80" y="300" width="640" height="30" as="geometry" />
        </mxCell>
        <mxCell id="9hJ4u-ntoePvAPQd4LTp-3" value="" style="endArrow=none;html=1;rounded=0;" parent="1" edge="1">
          <mxGeometry width="50" height="50" relative="1" as="geometry">
            <mxPoint x="200" y="330" as="sourcePoint" />
            <mxPoint x="200" y="300" as="targetPoint" />
          </mxGeometry>
        </mxCell>
        <mxCell id="9hJ4u-ntoePvAPQd4LTp-5" value="" style="endArrow=none;html=1;rounded=0;" parent="1" edge="1">
          <mxGeometry width="50" height="50" relative="1" as="geometry">
            <mxPoint x="330" y="330" as="sourcePoint" />
            <mxPoint x="330" y="300" as="targetPoint" />
          </mxGeometry>
        </mxCell>
        <mxCell id="9hJ4u-ntoePvAPQd4LTp-6" value="Nome" style="text;html=1;strokeColor=none;fillColor=none;align=center;verticalAlign=middle;whiteSpace=wrap;rounded=0;" parent="1" vertex="1">
          <mxGeometry x="105" y="300" width="60" height="30" as="geometry" />
        </mxCell>
        <mxCell id="9hJ4u-ntoePvAPQd4LTp-7" value="Animal" style="text;html=1;strokeColor=none;fillColor=none;align=center;verticalAlign=middle;whiteSpace=wrap;rounded=0;" parent="1" vertex="1">
          <mxGeometry x="240" y="300" width="60" height="30" as="geometry" />
        </mxCell>
        <mxCell id="9hJ4u-ntoePvAPQd4LTp-8" value="Valor" style="text;html=1;strokeColor=none;fillColor=none;align=center;verticalAlign=middle;whiteSpace=wrap;rounded=0;" parent="1" vertex="1">
          <mxGeometry x="360" y="300" width="60" height="30" as="geometry" />
        </mxCell>
        <mxCell id="9hJ4u-ntoePvAPQd4LTp-9" value="Data Criação" style="text;html=1;strokeColor=none;fillColor=none;align=center;verticalAlign=middle;whiteSpace=wrap;rounded=0;" parent="1" vertex="1">
          <mxGeometry x="460" y="300" width="80" height="30" as="geometry" />
        </mxCell>
        <mxCell id="9hJ4u-ntoePvAPQd4LTp-10" value="" style="endArrow=none;html=1;rounded=0;" parent="1" edge="1">
          <mxGeometry width="50" height="50" relative="1" as="geometry">
            <mxPoint x="430" y="330" as="sourcePoint" />
            <mxPoint x="430" y="300" as="targetPoint" />
          </mxGeometry>
        </mxCell>
        <mxCell id="9hJ4u-ntoePvAPQd4LTp-11" value="" style="endArrow=none;html=1;rounded=0;" parent="1" edge="1">
          <mxGeometry width="50" height="50" relative="1" as="geometry">
            <mxPoint x="570" y="330" as="sourcePoint" />
            <mxPoint x="570" y="300" as="targetPoint" />
          </mxGeometry>
        </mxCell>
        <mxCell id="9hJ4u-ntoePvAPQd4LTp-12" value="Editar" style="text;html=1;strokeColor=none;fillColor=none;align=center;verticalAlign=middle;whiteSpace=wrap;rounded=0;" parent="1" vertex="1">
          <mxGeometry x="600" y="300" width="80" height="30" as="geometry" />
        </mxCell>
        <mxCell id="9hJ4u-ntoePvAPQd4LTp-13" value="" style="rounded=0;whiteSpace=wrap;html=1;" parent="1" vertex="1">
          <mxGeometry x="80" y="330" width="640" height="30" as="geometry" />
        </mxCell>
        <mxCell id="9hJ4u-ntoePvAPQd4LTp-14" value="Luis Bastos" style="text;html=1;strokeColor=none;fillColor=none;align=center;verticalAlign=middle;whiteSpace=wrap;rounded=0;" parent="1" vertex="1">
          <mxGeometry x="92.5" y="330" width="85" height="30" as="geometry" />
        </mxCell>
        <mxCell id="9hJ4u-ntoePvAPQd4LTp-15" value="Cão" style="text;html=1;strokeColor=none;fillColor=none;align=center;verticalAlign=middle;whiteSpace=wrap;rounded=0;" parent="1" vertex="1">
          <mxGeometry x="240" y="330" width="60" height="30" as="geometry" />
        </mxCell>
        <mxCell id="9hJ4u-ntoePvAPQd4LTp-16" value="40" style="text;html=1;strokeColor=none;fillColor=none;align=center;verticalAlign=middle;whiteSpace=wrap;rounded=0;" parent="1" vertex="1">
          <mxGeometry x="360" y="330" width="60" height="30" as="geometry" />
        </mxCell>
        <mxCell id="9hJ4u-ntoePvAPQd4LTp-17" value="2023-11-22 11:00:;15" style="text;html=1;strokeColor=none;fillColor=none;align=center;verticalAlign=middle;whiteSpace=wrap;rounded=0;" parent="1" vertex="1">
          <mxGeometry x="440" y="330" width="120" height="30" as="geometry" />
        </mxCell>
        <mxCell id="9hJ4u-ntoePvAPQd4LTp-18" value="ver" style="rounded=0;whiteSpace=wrap;html=1;" parent="1" vertex="1">
          <mxGeometry x="580" y="330" width="40" height="30" as="geometry" />
        </mxCell>
        <mxCell id="9hJ4u-ntoePvAPQd4LTp-19" value="Editar" style="rounded=0;whiteSpace=wrap;html=1;" parent="1" vertex="1">
          <mxGeometry x="620" y="330" width="40" height="30" as="geometry" />
        </mxCell>
        <mxCell id="9hJ4u-ntoePvAPQd4LTp-20" value="Remover" style="rounded=0;whiteSpace=wrap;html=1;" parent="1" vertex="1">
          <mxGeometry x="660" y="330" width="60" height="30" as="geometry" />
        </mxCell>
        <mxCell id="vgx6DDI6oipF6LLnqMoc-1" value="Lista de Sponsors" style="rounded=0;whiteSpace=wrap;html=1;" vertex="1" parent="1">
          <mxGeometry x="330" y="200" width="110" height="30" as="geometry" />
        </mxCell>
      </root>
    </mxGraphModel>
  </diagram>
</mxfile>
